<mxfile host="app.diagrams.net" modified="2023-01-02T11:49:32.984Z" agent="5.0 (Windows NT 10.0; Win64; x64) AppleWebKit/537.36 (KHTML, like Gecko) Chrome/108.0.0.0 Safari/537.36" version="20.7.4" etag="FqfJjRoTMtLkohIMspQC" type="github">
  <diagram id="52RMOxdFqzdqMziotegz" name="Page-1">
    <mxGraphModel dx="936" dy="514" grid="1" gridSize="10" guides="1" tooltips="1" connect="1" arrows="1" fold="1" page="1" pageScale="1" pageWidth="850" pageHeight="1100" math="0" shadow="0">
      <root>
        <mxCell id="0" />
        <mxCell id="1" parent="0" />
        <mxCell id="KAb41mYFyRsljzCSJyEi-3" style="edgeStyle=orthogonalEdgeStyle;rounded=0;orthogonalLoop=1;jettySize=auto;html=1;entryX=1;entryY=0.5;entryDx=0;entryDy=0;" edge="1" parent="1" source="KAb41mYFyRsljzCSJyEi-1" target="KAb41mYFyRsljzCSJyEi-2">
          <mxGeometry relative="1" as="geometry" />
        </mxCell>
        <mxCell id="KAb41mYFyRsljzCSJyEi-1" value="ttttt" style="shape=process;whiteSpace=wrap;html=1;backgroundOutline=1;" vertex="1" parent="1">
          <mxGeometry x="260" y="150" width="120" height="60" as="geometry" />
        </mxCell>
        <mxCell id="KAb41mYFyRsljzCSJyEi-2" value="" style="ellipse;whiteSpace=wrap;html=1;aspect=fixed;" vertex="1" parent="1">
          <mxGeometry x="310" y="260" width="80" height="80" as="geometry" />
        </mxCell>
      </root>
    </mxGraphModel>
  </diagram>
</mxfile>
